# xmcd CD database file
#
# Track frame offsets:
#	150
#	11291
#	28435
#	45291
#	58932
#	78857
#	92499
#	109710
#	134707
#	146778
#	165706
#	184423
#	198287
#	214646
#	230596
#	242732
#	266726
#	283630
#
# Disc length: 4105 seconds
#
# Revision: 1
# Processed by: cddbd v1.5.1PL0 Copyright (c) Steve Scherf et al.
# Submitted via: CDex 1.51
#
DISCID=05100712
DTITLE=Asas Livres - ARROCHA
DYEAR=2003
DGENRE=Alternative
TTITLE0=Perigo
TTITLE1=Quero Ser Feliz
TTITLE2=Amo em Silêncio
TTITLE3=Toque de Mágica
TTITLE4=Passou da Conta
TTITLE5=A Dor desse Amor
TTITLE6=Não Seja Criança
TTITLE7=Nem Mais uma Dúvida
TTITLE8=Se Errar Outra Vez
TTITLE9=Carente de Felicidade
TTITLE10=Arrocha
TTITLE11=Te Amo Demais
TTITLE12=Tá Com Raiva de Mim
TTITLE13=Coisas do Coração
TTITLE14=Bicho no Cio
TTITLE15=A Ferro e Fogo
TTITLE16=Tô Por Aí
TTITLE17=Por Deus Eu Te Amo
EXTD=YEAR: 2003
EXTT0=
EXTT1=
EXTT2=
EXTT3=
EXTT4=
EXTT5=
EXTT6=
EXTT7=
EXTT8=
EXTT9=
EXTT10=
EXTT11=
EXTT12=
EXTT13=
EXTT14=
EXTT15=
EXTT16=
EXTT17=
PLAYORDER=
